<?xml version="1.0" encoding="UTF-8" standalone="no"?>
<svg
   xmlns:dc="http://purl.org/dc/elements/1.1/"
   xmlns:cc="http://creativecommons.org/ns#"
   xmlns:rdf="http://www.w3.org/1999/02/22-rdf-syntax-ns#"
   xmlns:svg="http://www.w3.org/2000/svg"
   xmlns="http://www.w3.org/2000/svg"
   id="svg3325"
   viewBox="0, 0, 128, 128"
   height="128"
   width="128"
   y="0px"
   x="0px"
   version="1.1">
  <metadata
     id="metadata3329">
    <rdf:RDF>
      <cc:Work
         rdf:about="">
        <dc:format>image/svg+xml</dc:format>
        <dc:type
           rdf:resource="http://purl.org/dc/dcmitype/StillImage" />
        <dc:title></dc:title>
      </cc:Work>
    </rdf:RDF>
  </metadata>
  <g
     id="Background">
    <rect
       id="rect3308"
       fill-opacity="0"
       fill="#000000"
       height="128"
       width="128"
       y="0"
       x="0" />
  </g>
  <g
     id="g3321">
    <path
       id="path3311"
       fill="#737370"
       d="M18.092,6 L109.903,6 C116.552,6 122,11.441 122,18.096 L122,109.902 C122,116.559 116.552,122 109.903,122 L18.092,122 C11.436,122 6,116.559 6,109.902 L6,18.096 C6,11.441 11.436,6 18.092,6" />
    <g
       style="fill:#ebeded;fill-opacity:1"
       id="g2684"
       transform="matrix(2.25,0,0,2.25,6.7500381,16.034055)">
      <g
         style="fill:#ebeded;fill-opacity:1"
         id="g2682">
        <path
           style="fill:#ebeded;fill-opacity:1"
           id="path2678"
           d="m 27.458,12.688 c 0,-1.11 -1.628,-2.351 -3.959,-2.351 -2.333,0 -3.959,1.239 -3.959,2.351 0,1.113 1.626,2.354 3.959,2.354 2.332,-10e-4 3.959,-1.24 3.959,-2.354 z" />
        <path
           style="fill:#ebeded;fill-opacity:1"
           id="path2680"
           d="M 15.929,47 H 42.17 c 0,0 -7.614,-6.121 -7.455,-12.829 C 34.81,30.43 42.17,25.675 42.132,15.283 42.11,10.06 37.043,1.375 28.44,0.294 19.835,-0.791 13.394,1.104 10.581,6.408 c -2.817,5.303 -3.03,9.957 -2.814,10.823 0.218,0.867 1.137,2.488 1.137,2.488 0,0 -4.329,6.655 -4.061,7.738 0.274,1.083 3.244,1.666 3.244,1.666 0,0 0.269,0.753 -0.275,2.214 -0.542,1.463 1.007,3.16 1.473,3.753 0.458,0.593 -0.65,2.435 -0.273,3.465 0.378,1.027 2.167,2.271 4.22,2 2.059,-0.271 4.699,-0.757 5.616,-0.92 C 20.917,44.505 15.929,47 15.929,47 Z m 1.044,-34.312 c 0,-2.758 2.866,-4.919 6.528,-4.92 3.66,0 6.526,2.162 6.526,4.919 0,2.433 -2.228,4.396 -5.261,4.829 0.001,0.032 0.02,0.06 0.02,0.092 v 5.101 h 2.03 c 0.711,0.001 1.284,0.572 1.284,1.281 0,0.712 -0.572,1.285 -1.284,1.285 h -2.03 v 0.751 h 3.42 c 0.71,0 1.286,0.574 1.286,1.285 0,0.708 -0.575,1.281 -1.285,1.28 l -3.421,10e-4 v 1.39 c 0,0.709 -0.576,1.286 -1.286,1.286 -0.708,0 -1.284,-0.577 -1.283,-1.286 V 17.607 c 0,-0.032 0.016,-0.06 0.019,-0.093 -3.036,-0.43 -5.263,-2.395 -5.263,-4.826 z" />
      </g>
    </g>
  </g>
  <defs
     id="defs3323" />
</svg>
